<svg id="Capa_1" enable-background="new 0 0 511.877 511.877" height="512" viewBox="0 0 511.877 511.877" width="512" xmlns="http://www.w3.org/2000/svg"><g><path d="m262.988 423.624c-10.758-3.503-16.641-15.062-13.139-25.821 8.116-24.93 7.549-70.675 7.518-97.342 0-11.314 9.172-20.486 20.486-20.486s20.486 9.172 20.486 20.486c.038 32.753.557 79.04-9.53 110.024-3.492 10.723-15.03 16.652-25.821 13.139z" fill="#7fd29b"/><path d="m85.346 485.266c-6.656-11.085-3.065-25.468 8.021-32.123 75.655-45.425 207.363-92.41 296.815-92.41 12.93 0 23.412 10.482 23.412 23.412s-10.482 23.412-23.412 23.412c-80.253 0-204.044 44.5-272.712 85.73-11.122 6.678-25.491 3.027-32.124-8.021z" fill="#8ce0cd"/><path d="m27.842 104.022c34.603-34.603 101.823-23.485 145.749 20.441 64.316 64.316 91.965 148.067 57.362 182.669s-118.354 6.954-182.669-57.362c-43.926-43.925-55.045-111.145-20.442-145.748z" fill="#7fd29b"/><path d="m230.953 307.133c34.603-34.603 6.954-118.354-57.362-182.67-8.641-8.641-18.186-16.006-28.204-22.01-6.603 16.583-10.116 33.749-10.116 50.503 0 84.436 32.047 139.492 75.577 166.101 7.771-2.454 14.569-6.389 20.105-11.924z" fill="#5ec581"/><path d="m173.474 257.154c-1.919 0-3.839-.732-5.303-2.196l-83.075-83.075c-2.929-2.93-2.929-7.678 0-10.607 2.929-2.928 7.678-2.928 10.606 0l83.075 83.075c2.929 2.93 2.929 7.678 0 10.607-1.464 1.464-3.383 2.196-5.303 2.196z" fill="#5ec581"/><g><path d="m484.034 35.565c-34.602-34.603-101.823-23.484-145.748 20.442-64.316 64.316-91.965 148.067-57.362 182.67s118.353 6.954 182.669-57.362c43.926-43.927 55.044-111.147 20.441-145.75z" fill="#7fd29b"/><g fill="#5ec581"><path d="m420.435 152.956c0-43.442-23.687-87.401-57.815-116.563-8.607 5.533-16.812 12.092-24.334 19.613-64.316 64.316-91.965 148.067-57.362 182.67 25.796 25.796 78.908 16.988 130.918-15.81 5.519-20.518 8.593-43.805 8.593-69.91z"/><path d="m358.818 168.281c-1.919 0-3.839-.732-5.303-2.196-2.929-2.93-2.929-7.678 0-10.607l73.744-73.744c2.929-2.928 7.678-2.928 10.606 0 2.929 2.93 2.929 7.678 0 10.607l-73.744 73.744c-1.464 1.464-3.383 2.196-5.303 2.196z"/></g></g><path d="m203.519 394.473c22.948 22.948 32.234 59.154 15.63 75.757-16.604 16.604-52.809 7.318-75.757-15.63s-23.948-50.868-7.344-67.471c16.603-16.604 44.523-15.604 67.471 7.344z" fill="#e06e7e"/><path d="m217.668 471.589c-55.959-13.803-76.498-70.784-59.743-95.377-8.269 1.164-15.827 4.865-21.878 10.916-16.603 16.604-15.603 44.524 7.344 67.471 22.29 22.29 57.084 31.685 74.277 16.99z" fill="#d7495d"/><path d="m277.853 313.602c-58.419 0-118.363-48.422-118.363-160.646 0-62.12 59.944-126.596 118.363-126.596s118.363 64.476 118.363 126.596c0 112.225-59.944 160.646-118.363 160.646z" fill="#8ce0cd"/><g><g><ellipse cx="193.865" cy="186.444" fill="#eda1ab" rx="30.99" ry="24.679"/><ellipse cx="361.84" cy="186.444" fill="#eda1ab" rx="30.99" ry="24.679"/><g fill="#fff"><circle cx="355.798" cy="142.138" r="31.213"/><circle cx="199.907" cy="142.138" r="31.213"/></g></g></g><path d="m277.862 278.621c-4.142 0-7.5-3.357-7.5-7.5v-49.564c0-4.143 3.358-7.5 7.5-7.5s7.5 3.357 7.5 7.5v49.564c0 4.143-3.358 7.5-7.5 7.5z" fill="#7fd29b"/><path d="m277.853 109.33c-4.142 0-7.5-3.357-7.5-7.5v-29.585c0-4.143 3.358-7.5 7.5-7.5s7.5 3.357 7.5 7.5v29.585c0 4.143-3.358 7.5-7.5 7.5z" fill="#7fd29b"/><path d="m355.799 159.924c4.142 0 7.5-3.357 7.5-7.5v-20.594c0-4.143-3.358-7.5-7.5-7.5s-7.5 3.357-7.5 7.5v20.594c0 4.142 3.358 7.5 7.5 7.5zm-40.433-6.732c-3.123-2.722-7.86-2.396-10.582.727-6.797 7.8-16.613 12.272-26.931 12.272s-20.134-4.473-26.931-12.272c-2.722-3.121-7.459-3.447-10.582-.727-3.123 2.722-3.448 7.459-.727 10.582 9.646 11.068 23.583 17.417 38.239 17.417 14.655 0 28.593-6.349 38.24-17.417 2.722-3.123 2.397-7.86-.726-10.582zm70.987 92.06c28.879-13.244 57.364-33.456 82.543-58.634 47.917-47.917 57.278-119.52 20.441-156.357-34.247-34.247-99.006-28.714-146.779 11.649-19.715-14.298-42.286-23.05-64.705-23.05-47.073 0-94.809 38.585-115.373 86.079-16.479-12.4-35.022-21.213-54.183-25.662-4.038-.94-8.065 1.575-9.002 5.609-.937 4.035 1.575 8.065 5.609 9.002 18.531 4.302 36.465 13.203 52.16 25.83-3.276 10.897-5.074 22.085-5.074 33.238 0 29.169 3.989 54.289 10.952 75.559l-67.24-67.24c-2.929-2.928-7.678-2.928-10.606 0-2.929 2.93-2.929 7.678 0 10.607l83.075 83.075c1.76 1.76 4.346 2.606 6.991 1.997 12.091 22.034 28.096 38.141 46.016 48.704-15.054 11.038-38.937 12.061-68.138 2.742-33.151-10.578-69.401-33.882-99.454-63.935-20.039-20.038-33.726-46.342-37.553-72.166-3.817-25.759 2.26-48.124 17.112-62.976 10.03-10.031 23.791-16.179 39.795-17.779 4.121-.412 7.128-4.088 6.716-8.209-.413-4.122-4.086-7.128-8.21-6.717-19.489 1.949-36.401 9.591-48.908 22.099-36.835 36.839-27.474 108.44 20.442 156.357 32.156 32.155 69.623 56.169 105.501 67.617 29.828 9.517 64.988 11.971 87.301-9.806 4.624 1.883 9.332 3.437 14.094 4.667-.074 20.855-.67 43.421-3.448 61.359-11.802 3.641-23.796 7.647-35.92 12.006-27.368-28.882-60.852-28.005-79.764-9.092-12.395 12.395-16.621 30.14-11.217 48.267-10.75 5.525-20.83 11.102-30.021 16.62-14.647 8.793-19.387 27.766-10.59 42.414 8.758 14.588 27.706 19.423 42.415 10.59 12.173-7.309 26.128-14.725 41.487-22.072 19.882 9.906 45.941 13.582 61.634-2.111 6.902-6.901 10.507-16.481 10.642-27.735 48.52-17.182 95.508-28.41 132.83-31.702 4.126-.363 7.176-4.004 6.812-8.13s-4.003-7.184-8.13-6.811c-37.697 3.325-84.727 14.417-133.261 31.364-2.31-10.001-6.82-20.081-12.938-29.203 64.218-22.657 124.196-35.084 169.775-35.084 8.774 0 15.912 7.138 15.912 15.912 0 5.845-3.195 11.209-8.339 14-3.641 1.975-4.991 6.528-3.016 10.169 1.973 3.635 6.527 4.993 10.169 3.015 9.984-5.417 16.186-15.833 16.186-27.184 0-17.045-13.867-30.912-30.912-30.912-25.045 0-54.175 3.583-85.822 10.404 1.131-15.155 1.432-30.859 1.483-46.05 37.042-9.522 64.669-36.616 80.51-72.334zm-272.744 241.604c-7.57 4.546-17.324 2.057-21.833-5.452-4.527-7.538-2.09-17.303 5.452-21.832 8.678-5.21 18.192-10.482 28.341-15.718 5.605 9.59 13.504 17.883 22.188 24.454-12.432 6.178-23.896 12.393-34.148 18.548zm100.236-21.929c-5.903 5.903-16.315 7.727-28.567 4.999-13.042-2.902-26.376-10.421-36.583-20.63-21.176-21.174-19.976-44.231-7.344-56.864 5.944-5.944 13.783-9.126 22.33-9.126 38.618 0 70.556 61.23 50.164 81.621zm204.489-441.518c24.656-3.034 46.106 3.167 60.398 17.46 14.851 14.852 20.929 37.217 17.112 62.976-3.827 25.824-17.515 52.128-37.553 72.166-19.865 19.865-41.833 36.433-64.323 48.649 6.436-21.246 9.748-45.336 9.748-71.704 0-7.964-.922-15.946-2.637-23.827l36.788-36.788c2.929-2.93 2.929-7.678 0-10.607-2.929-2.928-7.678-2.928-10.606 0l-30.948 30.947c-8.397-23.133-23.356-44.591-41.827-61.131 18.949-15.283 41.796-25.428 63.848-28.141zm-129.295 343.737c-8.792 2.129-17.748 4.49-26.844 7.081 2.011-16.643 2.561-35.818 2.668-53.885 8.363.972 16.962 1.049 25.967.016-.08 15.59-.464 31.611-1.791 46.788zm-11.186-61.043c-29.028 0-55.8-12.646-75.382-35.605-23.212-27.217-35.481-67.861-35.481-117.541 0-59.263 57.805-119.096 110.863-119.096 53.145 0 110.863 59.927 110.863 119.096 0 49.68-12.269 90.324-35.481 117.541-19.582 22.959-46.354 35.605-75.382 35.605zm-77.946-181.773c-4.142 0-7.5 3.357-7.5 7.5v20.594c0 4.143 3.358 7.5 7.5 7.5s7.5-3.357 7.5-7.5v-20.594c0-4.143-3.357-7.5-7.5-7.5zm77.955 89.727c-4.142 0-7.5 3.357-7.5 7.5v49.564c0 4.143 3.358 7.5 7.5 7.5s7.5-3.357 7.5-7.5v-49.564c0-4.143-3.358-7.5-7.5-7.5zm-.009-104.727c4.142 0 7.5-3.357 7.5-7.5v-29.585c0-4.143-3.358-7.5-7.5-7.5s-7.5 3.357-7.5 7.5v29.585c0 4.143 3.358 7.5 7.5 7.5z"/></g></svg>