<svg id="Capa_1" enable-background="new 0 0 512.013 512.013" height="512" viewBox="0 0 512.013 512.013" width="512" xmlns="http://www.w3.org/2000/svg"><g><path d="m477.649 224.827c27.54 27.54 31.032 68.701-3.414 103.147-48.158 48.158-131.619 74.152-152.752 53.019s4.862-104.594 53.019-152.752c34.446-34.446 75.607-30.955 103.147-3.414z" fill="#7fd29b"/><path d="m400.061 336.389c0-36.828-13.594-70.189-36.504-96.169-41.012 48.93-61.544 121.303-42.074 140.773 11.541 11.541 41.67 9.026 74.486-3.477 2.629-12.415 4.092-26.061 4.092-41.127z" fill="#5ec581"/><path d="m34.363 475.382c-27.541-27.54-31.032-68.701 3.414-103.147 48.158-48.158 131.619-74.152 152.752-53.019s-4.862 104.594-53.019 152.752c-34.446 34.446-75.606 30.954-103.147 3.414z" fill="#7fd29b"/><path d="m190.53 319.216c-16.752-16.752-72.665-3.887-119.115 26.151 2.576 64.439 32.827 101.623 65.068 127.588.342-.333.687-.646 1.028-.987 48.157-48.158 74.152-131.619 53.019-152.752z" fill="#5ec581"/><path d="m235.648 247.678c-13.334 0-24.143-10.809-24.143-24.143 0-22.012 3.7-73.397-15.375-111.445-5.976-11.921-1.158-26.428 10.762-32.403 11.919-5.977 26.426-1.158 32.403 10.762 22.127 44.136 21.145 96.246 20.617 124.24-.065 3.448-.121 6.427-.121 8.846.001 13.334-10.808 24.143-24.143 24.143z" fill="#deb597"/><path d="m239.296 90.449c-5.976-11.92-20.484-16.739-32.403-10.762-11.92 5.976-16.738 20.483-10.762 32.403 6.517 12.999 10.373 27.555 12.629 41.964 16.571 4.535 33.281 8.178 49.97 10.911-2.121-23.71-7.298-50.309-19.434-74.516z" fill="#d79882"/><path d="m62.588 51.009c-10.702-7.953-12.931-23.076-4.978-33.779 7.954-10.702 23.075-12.932 33.779-4.977 94.325 70.095 204.414 86.099 270.029 78.516 13.243-1.547 25.225 7.963 26.757 21.209s-7.964 25.225-21.21 26.757c-92.05 10.652-211.575-18.764-304.377-87.726z" fill="#deb597"/><path d="m214.149 497.015c12.624 9.961 30.376 9.961 42.999 0 43.479-34.307 117.913-59.173 117.913-160.626 0-72.484-62.417-126.416-139.413-126.416s-139.413 53.931-139.413 126.416c0 101.452 74.434 126.319 117.914 160.626z" fill="#f3e872"/><ellipse cx="235.648" cy="302.054" fill="#deb597" rx="45.556" ry="45.556" transform="matrix(.972 -.234 .234 .972 -64.216 63.625)"/><ellipse cx="235.648" cy="302.054" fill="#deb597" rx="45.556" ry="45.556" transform="matrix(.972 -.234 .234 .972 -64.216 63.625)"/><g><g fill="#eda1ab"><ellipse cx="157.272" cy="404.257" rx="28.919" ry="23.03"/><ellipse cx="314.025" cy="404.257" rx="28.919" ry="23.03"/></g></g><path d="m270.039 331.912c-56.515 3.105-62.956-51.924-47.004-73.631-19.021 5.472-32.942 22.991-32.942 43.773 0 25.16 20.396 45.556 45.556 45.556 13.733 0 26.037-6.086 34.39-15.698z" fill="#d79882"/><path d="m235.648 248.998c-29.255 0-53.056 23.801-53.056 53.056 0 29.256 23.801 53.057 53.056 53.057s53.056-23.801 53.056-53.057c0-29.255-23.801-53.056-53.056-53.056zm0 91.112c-20.984 0-38.056-17.072-38.056-38.057 0-20.984 17.072-38.056 38.056-38.056s38.056 17.071 38.056 38.056-17.072 38.057-38.056 38.057zm61.523 17.821c-11.726 0-21.265 9.54-21.265 21.266 0 4.143 3.358 7.5 7.5 7.5s7.5-3.357 7.5-7.5c0-3.455 2.811-6.266 6.265-6.266s6.265 2.811 6.265 6.266c0 4.143 3.358 7.5 7.5 7.5s7.5-3.357 7.5-7.5c0-11.726-9.54-21.266-21.265-21.266zm-123.045 0c-11.726 0-21.265 9.54-21.265 21.266 0 4.143 3.358 7.5 7.5 7.5s7.5-3.357 7.5-7.5c0-3.455 2.811-6.266 6.265-6.266 3.455 0 6.265 2.811 6.265 6.266 0 4.143 3.358 7.5 7.5 7.5s7.5-3.357 7.5-7.5c0-11.726-9.539-21.266-21.265-21.266zm81.051 31.699c-3.123-2.722-7.86-2.396-10.581.727-2.259 2.593-5.521 4.08-8.947 4.08s-6.688-1.487-8.948-4.08c-2.722-3.122-7.459-3.447-10.581-.727-3.123 2.722-3.448 7.459-.727 10.582 5.109 5.862 12.492 9.225 20.256 9.225s15.146-3.362 20.255-9.225c2.721-3.123 2.396-7.862-.727-10.582zm227.776-170.107c-31.154-31.154-77.07-33.269-113.754 3.414-7.58 7.58-14.804 16.197-21.573 25.661-21.511-22.832-49.869-37.241-80.057-43.089.195-15.281.003-38.147-4.083-62.553 28.384 4.561 57.553 6.488 86.25 4.798 4.135-.244 7.29-3.794 7.045-7.929-.243-4.135-3.785-7.279-7.928-7.046-93.517 5.519-201.499-28.125-281.79-87.791-7.366-5.474-8.905-15.92-3.432-23.286 5.474-7.366 15.921-8.905 23.285-3.431 81.948 60.897 175.697 81.705 243.069 81.703 11.614-.001 22.454-.619 32.304-1.758 14.971-1.746 24.305 15.857 14.592 27.304-2.68 3.158-2.292 7.892.866 10.571 3.158 2.68 7.891 2.293 10.571-.866 5.647-6.654 8.311-15.443 7.308-24.112-2.014-17.41-17.746-29.823-35.068-27.796-64.256 7.424-172.14-8.307-264.695-77.085-14.002-10.405-33.863-7.48-44.273 6.524-10.407 14.005-7.48 33.866 6.524 44.272 39.797 29.574 86.637 53.405 135.962 69.248 9.957 26.998 10.437 58.793 10.187 79.134-61.528 11.706-110.414 58.279-115.152 121.1-21.741 11.124-41.255 25.039-56.636 40.42-36.972 36.972-34.284 82.885-3.415 113.755 18.706 18.705 43.612 27.398 68.679 22.27 4.058-.83 6.674-4.794 5.844-8.852-.831-4.058-4.794-6.67-8.852-5.844-19.745 4.04-39.3-2.416-55.065-18.182-25.759-25.757-26.933-62.193 3.414-92.54 12.611-12.612 28.283-24.192 45.785-33.899.758 21.586 4.898 39.755 11.331 55.302l-15.639 15.639c-7.829-1.99-18.291-3.687-25.811-4.636-4.109-.517-7.861 2.393-8.38 6.502-.519 4.11 2.392 7.861 6.502 8.381 5.13.647 10.384 1.481 15.076 2.367l-11.29 11.289c-2.929 2.93-2.929 7.678 0 10.608 2.93 2.929 7.678 2.928 10.606 0l11.292-11.292c1.04 5.532 1.953 11.563 2.552 16.603.491 4.124 4.237 7.054 8.333 6.561 4.113-.488 7.051-4.22 6.563-8.333-1.011-8.5-2.809-19.469-4.836-27.443l11.954-11.954c9.572 17.095 22.065 30.629 35.472 42.063-3.39 4.039-6.865 7.849-10.382 11.367-2.863 2.862-5.837 5.5-8.837 7.84-3.267 2.547-3.85 7.26-1.303 10.526 2.542 3.26 7.255 3.853 10.526 1.302 7.951-6.198 15.245-13.931 21.719-21.671 19.381 14.571 39.508 25.868 55.19 38.241 15.394 12.146 36.897 12.148 52.29 0 34.007-26.83 90.139-49.295 111.862-110.612 37.397-8.811 78.524-31.654 105.883-59.012 36.972-36.969 34.284-82.883 3.415-113.753zm-235.207-79.38c4.595 24.047 4.998 47.318 4.846 63.179-10.807-1.081-21.827-1.164-33.304-.056.167-18.849-.468-46.1-7.755-71.74 12.065 3.377 24.16 6.245 36.213 8.617zm4.756 350.984c-9.923 7.83-23.784 7.83-33.707 0-43.693-34.476-115.059-57.789-115.059-154.738 0-69.679 60.634-118.916 131.913-118.916 71.472 0 131.913 49.408 131.913 118.916-.001 96.942-71.347 120.248-115.06 154.738zm216.43-168.456c-26.187 26.187-62.201 44.453-90.454 52.795 3.323-14.847 4.534-31.372 3.95-44.81l29.577-29.577c12.097 3.075 31.314 5.689 38.351 5.689 4.142 0 7.5-3.357 7.5-7.5s-3.358-7.5-7.5-7.5c-4.424 0-15.849-1.438-25.742-3.298l22.55-22.551c2.929-2.93 2.929-7.678 0-10.607-2.929-2.928-7.678-2.928-10.606 0l-22.551 22.551c-1.86-9.893-3.298-21.319-3.298-25.742 0-4.143-3.358-7.5-7.5-7.5s-7.5 3.357-7.5 7.5c0 7.037 2.614 26.255 5.689 38.352l-21.205 21.205c-3.606-18.547-11.275-35.918-22.608-51.2 6.928-10.056 14.388-19.1 22.222-26.933 30.184-30.184 66.626-29.331 92.541-3.414 25.757 25.757 26.931 62.193-3.416 92.54z"/></g></svg>