<svg id="Filled" height="512" viewBox="0 0 512 512" width="512" xmlns="http://www.w3.org/2000/svg"><path d="m48 344s64-40 104-80l64 72 80-32s8 112 48 144l-288-24z" fill="#ab6647"/><path d="m344 448c-108.5 32.71-239.15 43.81-280 16-72.5-49.35-24.38-169.03-24-168 0 0 24 96 56 96s48-48 48-48 16 56 64 64 72-24 72-24 0 56 64 64z" fill="#e07e30"/><path d="m168 32h144s-8 48 48 40c0 0 8 32 48 16 0 0 64 48 56 168 0 0-80 24-160 8s-136-168-136-232z" fill="#e07e30"/><g fill="#ab6647"><circle cx="136" cy="432" r="16"/><circle cx="384" cy="224" r="16"/><path d="m342.7 269.259a284.829 284.829 0 0 1 -39-5.091c-51.635-10.565-93-77.827-115.744-141.377 19.157 16.744 46.511 36.594 76.163 45.2 49.461 14.37 73.79 53.646 78.581 101.268z"/></g><path d="m472.094 254.579c3.808-62.869-12.038-106.152-26.1-131.464-15.649-28.168-32.485-40.983-33.194-41.515a8 8 0 0 0 -7.771-1.028c-11.327 4.532-20.458 5.138-27.137 1.8-7.77-3.879-10.126-12.3-10.131-12.316a8 8 0 0 0 -8.892-5.979c-15.262 2.18-26.188.054-32.473-6.322-8.824-8.95-6.523-24.324-6.5-24.444a8 8 0 0 0 -7.896-9.311h-144a8 8 0 0 0 -8 8c0 35.821 15.61 91.109 38.845 137.578 16.92 33.84 52.877 92.125 103.586 102.267a310.406 310.406 0 0 0 60.66 5.7 404.194 404.194 0 0 0 96.3-12l21.259 49.6a8 8 0 1 0 14.706-6.3zm-277.894-136.968c-7.806-22-13.54-43.981-16.317-62.829 23.514 24.805 69.048 68.645 110.856 84.783l-37.559 15.259c-22.426-9.624-42.696-24.831-56.98-37.213zm111.369 138.544c-32.635-6.527-65.455-39.815-92.414-93.733-2.468-4.937-4.852-10-7.14-15.146 23.313 16.552 42.609 24.549 55.876 28.4 21.945 6.374 39.378 18.219 51.816 35.205 9.929 13.561 16.533 30.112 19.711 49.287a267.441 267.441 0 0 1 -27.849-4.013zm44.195 5.074c-6.972-48.769-33.566-83.306-75.743-98.417l39.567-16.075c30.441 8.491 58.864 21.8 82.779 38.856 26.018 18.555 45.447 40.89 56.667 65.016-17.109 4.153-57.544 12.383-103.27 10.62zm55.893-88.663c-4.6-3.282-9.375-6.418-14.271-9.432l-7.467-52.265a8 8 0 1 0 -15.838 2.262l5.725 40.079a296.726 296.726 0 0 0 -67.973-25c-11.088-2.61-22.914-8.127-34.76-15.3l-7.154-50.049a8 8 0 0 0 -15.838 2.264l5.119 35.825c-27.4-20-52.888-45.657-67.189-60.95h117.643c.3 8.095 2.45 19.886 11.236 28.878 9 9.214 22.439 13.151 40 11.743a36.221 36.221 0 0 0 15.56 15.923c9.91 5.067 21.968 5.26 35.9.583 10.951 10.133 46.8 49.076 50.089 126.931-12.502-18.971-29.672-36.437-50.782-51.492z"/><path d="m384 200a24 24 0 1 0 24 24 24.027 24.027 0 0 0 -24-24zm0 32a8 8 0 1 1 8-8 8.009 8.009 0 0 1 -8 8z"/><circle cx="320" cy="104" r="8"/><path d="m136 408a24 24 0 1 0 24 24 24.027 24.027 0 0 0 -24-24zm0 32a8 8 0 1 1 8-8 8.009 8.009 0 0 1 -8 8z"/><circle cx="184" cy="440" r="8"/><path d="m146.343 258.343c-27.489 27.489-66.351 54.9-88.072 69.414-6.577-18.112-10.463-33.509-10.51-33.7a8.013 8.013 0 0 0 -8.056-6.057c-5.608.2-7.18 4.472-9.355 10.383-1.105 3-2.82 7.963-4.716 14.533-9.762 33.838-26 116.943 33.864 157.7 12.188 8.3 36.854 17.224 86.545 17.224 9.992 0 21-.361 33.116-1.161 52.283-3.45 113.207-14.756 167.15-31.016 27.354-8.246 95.532-24.822 137.722-.714a8 8 0 1 0 7.938-13.892c-19.355-11.06-63.852-25.792-146-1.977-13.551-13.058-24.953-39.385-33.113-76.6a469.241 469.241 0 0 1 -8.877-59.05 8 8 0 0 0 -10.95-6.857l-74.783 29.913-60.267-67.8a8 8 0 0 0 -11.636-.342zm-77.843 199.044c-26.731-18.2-38.888-49.121-36.133-91.915a228.635 228.635 0 0 1 7.179-42.847c2.469 7.452 5.514 15.925 9.067 24.452 14.841 35.612 30.34 52.923 47.387 52.923 23.449 0 39.084-20.23 47.651-35.82a125.743 125.743 0 0 0 7.693 13.258c14.342 21.512 33.478 34.81 55.341 38.453a100.744 100.744 0 0 0 16.6 1.411 83.013 83.013 0 0 0 51.205-17.025 77.457 77.457 0 0 0 6.454 16.488 70.9 70.9 0 0 0 33.37 31.253c-104.314 27.147-212.685 31.921-245.814 9.369zm253.314-23.564c-33.071-14.895-33.8-48.18-33.816-49.855h-.013a8 8 0 0 0 -14.362-4.8c-.615.8-11.143 14.159-31.877 19.716a505.118 505.118 0 0 0 49.058-69.065c3.912 28.281 12.704 73.955 31.012 104.004zm-111.793-92.508a8 8 0 0 0 8.95 2.113l59.186-23.675a491.292 491.292 0 0 1 -59.6 81.38 86.346 86.346 0 0 1 -9.243-1.024c-.783-.131-1.554-.281-2.319-.441-10.27-26.874-22.011-60.437-35.613-101.821zm-23.321 49.815c-25.267-16.7-34.89-48.931-35-49.328a8 8 0 0 0 -15.278-.341 106.268 106.268 0 0 1 -11.248 22.368c-9.005 13.384-18.817 20.171-29.174 20.171-8.944 0-20.749-15.289-31.74-41.01 19.33-12.808 55.366-37.837 84.041-64.353 14.667 45.45 27.326 82.544 38.399 112.493z"/></svg>