<svg id="Layer_1" height="512" viewBox="0 0 512 512" width="512" xmlns="http://www.w3.org/2000/svg" data-name="Layer 1"><g opacity=".5"><path d="m367.833 254.258a32 32 0 1 1 22.627-54.627l-11.313 11.313a16 16 0 1 0 0 22.627l95.2-95.228 11.315 11.312-95.2 95.229a31.789 31.789 0 0 1 -22.629 9.374z" fill="#bebfba"/></g><g opacity=".3"><path d="m98.114 511.985a31.994 31.994 0 1 1 22.628-54.612l-11.313 11.313a16 16 0 1 0 0 22.628l95.195-95.228 11.315 11.314-95.2 95.229a31.9 31.9 0 0 1 -22.625 9.356z" fill="#bebfba"/></g><path d="m248.222 244.173a117.882 117.882 0 0 1 -166.711-166.71l62.516-62.516 13.893 69.462 74.08-76.409v55.57l64.846-39.57-34.732 67.355 65.886-3.355-88 79.764 70.738 16.236z" fill="#ffa127"/><path d="m16.924 295.946-1.848-15.893c33.424-3.886 59.662-40.16 59.924-40.527a8.017 8.017 0 0 1 .9-1.056l142.49-140.17 11.22 11.4-142.022 139.717c-3.971 5.369-32.419 42.083-70.664 46.529z" fill="#e58410"/><path d="m278.225 311.667a96 96 0 1 1 135.765 135.764l-45.99 48.569-16.235-54.225-63.765 62.225v-45.255l-48 28.284 24-47.029h-48l64-66.108-48-13.892z" fill="#ef4e2e"/><path d="m300.853 436.118-11.314-11.318 118.6-118.6c2.841-3.236 29.513-32.707 61.5-36.425l1.848 15.893c-26.991 3.139-51.187 30.933-51.429 31.213-.13.151-.266.3-.407.439z" fill="#a0300d"/><path d="m61.891 416.751c-13.255 13.255-48 0-48 0s-13.255-34.745 0-48 64-16 64-16-2.745 50.749-16 64z" fill="#ef4e2e"/><path d="m458.109 125.891c-13.255 13.255-48 0-48 0s-13.255-34.745 0-48 64-16 64-16-2.745 50.745-16 64z" fill="#ffa127"/><path d="m181.411 239.569-66.864-22.869a8 8 0 0 1 -5.391-7.009l-5.136-73.127 15.961-1.121 4.765 67.835 61.844 21.156z" fill="#e58410"/><path d="m212.184 199.031-52.5-28.487a8 8 0 0 1 -4.166-6.488l-3.5-51.513 15.963-1.086 3.206 47.123 48.628 26.389z" fill="#e58410"/><g fill="#a0300d"><path d="m384.239 409.94-13.6-54.411-67.987-11.644 2.7-15.771 73.131 12.525a8 8 0 0 1 6.411 5.945l14.869 59.475z"/><path d="m328.246 425.966-5.624-22.182-27.722-3.861 2.207-15.847 33.054 4.6a8 8 0 0 1 6.651 5.957l6.946 27.4z"/></g></svg>